HIERARCHY
ROOT Hips
{
  OFFSET 0.000000 95.000000 0.000000
  CHANNELS 6 Xposition Yposition Zposition Zrotation Xrotation Yrotation
  JOINT Spine
  {
    OFFSET 0.000000 10.000000 0.000000
    CHANNELS 3 Zrotation Xrotation Yrotation
    JOINT Spine1
    {
      OFFSET 0.000000 12.000000 0.000000
      CHANNELS 3 Zrotation Xrotation Yrotation
      JOINT Spine2
      {
        OFFSET 0.000000 12.000000 0.000000
        CHANNELS 3 Zrotation Xrotation Yrotation
        JOINT Neck
        {
          OFFSET 0.000000 10.000000 0.000000
          CHANNELS 3 Zrotation Xrotation Yrotation
          JOINT Head
          {
            OFFSET 0.000000 8.000000 0.000000
            CHANNELS 3 Zrotation Xrotation Yrotation
            End Site
            {
              OFFSET 0.000000 10.000000 0.000000
            }
          }
        }
        JOINT LeftShoulder
        {
          OFFSET 6.000000 8.000000 0.000000
          CHANNELS 3 Zrotation Xrotation Yrotation
          JOINT LeftArm
          {
            OFFSET 12.000000 0.000000 0.000000
            CHANNELS 3 Zrotation Xrotation Yrotation
            JOINT LeftForeArm
            {
              OFFSET 24.000000 0.000000 0.000000
              CHANNELS 3 Zrotation Xrotation Yrotation
              JOINT LeftHand
              {
                OFFSET 22.000000 0.000000 0.000000
                CHANNELS 3 Zrotation Xrotation Yrotation
                JOINT LeftHandThumb1
                {
                  OFFSET 1.800000 -1.400000 0.500000
                  CHANNELS 3 Zrotation Xrotation Yrotation
                  JOINT LeftHandThumb2
                  {
                    OFFSET 2.400000 0.000000 0.000000
                    CHANNELS 3 Zrotation Xrotation Yrotation
                    JOINT LeftHandThumb3
                    {
                      OFFSET 1.900000 0.000000 0.000000
                      CHANNELS 3 Zrotation Xrotation Yrotation
                      End Site
                      {
                        OFFSET 1.600000 0.000000 0.000000
                      }
                    }
                  }
                }
                JOINT LeftHandIndex1
                {
                  OFFSET 6.600000 1.200000 0.300000
                  CHANNELS 3 Zrotation Xrotation Yrotation
                  JOINT LeftHandIndex2
                  {
                    OFFSET 2.000000 0.000000 0.000000
                    CHANNELS 3 Zrotation Xrotation Yrotation
                    JOINT LeftHandIndex3
                    {
                      OFFSET 1.200000 0.000000 0.000000
                      CHANNELS 3 Zrotation Xrotation Yrotation
                      End Site
                      {
                        OFFSET 1.000000 0.000000 0.000000
                      }
                    }
                  }
                }
                JOINT LeftHandMiddle1
                {
                  OFFSET 7.200000 0.000000 0.300000
                  CHANNELS 3 Zrotation Xrotation Yrotation
                  JOINT LeftHandMiddle2
                  {
                    OFFSET 3.000000 0.000000 0.000000
                    CHANNELS 3 Zrotation Xrotation Yrotation
                    JOINT LeftHandMiddle3
                    {
                      OFFSET 2.000000 0.000000 0.000000
                      CHANNELS 3 Zrotation Xrotation Yrotation
                      End Site
                      {
                        OFFSET 1.600000 0.000000 0.000000
                      }
                    }
                  }
                }
                JOINT LeftHandRing1
                {
                  OFFSET 7.100000 -1.000000 0.400000
                  CHANNELS 3 Zrotation Xrotation Yrotation
                  JOINT LeftHandRing2
                  {
                    OFFSET 2.600000 0.000000 0.000000
                    CHANNELS 3 Zrotation Xrotation Yrotation
                    JOINT LeftHandRing3
                    {
                      OFFSET 1.600000 0.000000 0.000000
                      CHANNELS 3 Zrotation Xrotation Yrotation
                      End Site
                      {
                        OFFSET 1.300000 0.000000 0.000000
                      }
                    }
                  }
                }
                JOINT LeftHandPinky1
                {
                  OFFSET 6.500000 -2.000000 0.500000
                  CHANNELS 3 Zrotation Xrotation Yrotation
                  JOINT LeftHandPinky2
                  {
                    OFFSET 1.900000 0.000000 0.000000
                    CHANNELS 3 Zrotation Xrotation Yrotation
                    JOINT LeftHandPinky3
                    {
                      OFFSET 1.400000 0.000000 0.000000
                      CHANNELS 3 Zrotation Xrotation Yrotation
                      End Site
                      {
                        OFFSET 1.300000 0.000000 0.000000
                      }
                    }
                  }
                }
              }
            }
          }
        }
        JOINT RightShoulder
        {
          OFFSET -6.000000 8.000000 0.000000
          CHANNELS 3 Zrotation Xrotation Yrotation
          JOINT RightArm
          {
            OFFSET -12.000000 0.000000 0.000000
            CHANNELS 3 Zrotation Xrotation Yrotation
            JOINT RightForeArm
            {
              OFFSET -24.000000 0.000000 0.000000
              CHANNELS 3 Zrotation Xrotation Yrotation
              JOINT RightHand
              {
                OFFSET -22.000000 0.000000 0.000000
                CHANNELS 3 Zrotation Xrotation Yrotation
                JOINT RightHandThumb1
                {
                  OFFSET -1.800000 -1.400000 0.500000
                  CHANNELS 3 Zrotation Xrotation Yrotation
                  JOINT RightHandThumb2
                  {
                    OFFSET -2.400000 0.000000 0.000000
                    CHANNELS 3 Zrotation Xrotation Yrotation
                    JOINT RightHandThumb3
                    {
                      OFFSET -1.900000 0.000000 0.000000
                      CHANNELS 3 Zrotation Xrotation Yrotation
                      End Site
                      {
                        OFFSET -1.600000 0.000000 0.000000
                      }
                    }
                  }
                }
                JOINT RightHandIndex1
                {
                  OFFSET -6.600000 1.200000 0.300000
                  CHANNELS 3 Zrotation Xrotation Yrotation
                  JOINT RightHandIndex2
                  {
                    OFFSET -2.000000 0.000000 0.000000
                    CHANNELS 3 Zrotation Xrotation Yrotation
                    JOINT RightHandIndex3
                    {
                      OFFSET -1.200000 0.000000 0.000000
                      CHANNELS 3 Zrotation Xrotation Yrotation
                      End Site
                      {
                        OFFSET -1.000000 0.000000 0.000000
                      }
                    }
                  }
                }
                JOINT RightHandMiddle1
                {
                  OFFSET -7.200000 0.000000 0.300000
                  CHANNELS 3 Zrotation Xrotation Yrotation
                  JOINT RightHandMiddle2
                  {
                    OFFSET -3.000000 0.000000 0.000000
                    CHANNELS 3 Zrotation Xrotation Yrotation
                    JOINT RightHandMiddle3
                    {
                      OFFSET -2.000000 0.000000 0.000000
                      CHANNELS 3 Zrotation Xrotation Yrotation
                      End Site
                      {
                        OFFSET -1.600000 0.000000 0.000000
                      }
                    }
                  }
                }
                JOINT RightHandRing1
                {
                  OFFSET -7.100000 -1.000000 0.400000
                  CHANNELS 3 Zrotation Xrotation Yrotation
                  JOINT RightHandRing2
                  {
                    OFFSET -2.600000 0.000000 0.000000
                    CHANNELS 3 Zrotation Xrotation Yrotation
                    JOINT RightHandRing3
                    {
                      OFFSET -1.600000 0.000000 0.000000
                      CHANNELS 3 Zrotation Xrotation Yrotation
                      End Site
                      {
                        OFFSET -1.300000 0.000000 0.000000
                      }
                    }
                  }
                }
                JOINT RightHandPinky1
                {
                  OFFSET -6.500000 -2.000000 0.500000
                  CHANNELS 3 Zrotation Xrotation Yrotation
                  JOINT RightHandPinky2
                  {
                    OFFSET -1.900000 0.000000 0.000000
                    CHANNELS 3 Zrotation Xrotation Yrotation
                    JOINT RightHandPinky3
                    {
                      OFFSET -1.400000 0.000000 0.000000
                      CHANNELS 3 Zrotation Xrotation Yrotation
                      End Site
                      {
                        OFFSET -1.300000 0.000000 0.000000
                      }
                    }
                  }
                }
              }
            }
          }
        }
      }
    }
  }
  JOINT LeftUpLeg
  {
    OFFSET 10.000000 -5.000000 0.000000
    CHANNELS 3 Zrotation Xrotation Yrotation
    JOINT LeftLeg
    {
      OFFSET 0.000000 -42.000000 0.000000
      CHANNELS 3 Zrotation Xrotation Yrotation
      JOINT LeftFoot
      {
        OFFSET 0.000000 -42.000000 4.000000
        CHANNELS 3 Zrotation Xrotation Yrotation
        End Site
        {
          OFFSET 0.000000 0.000000 12.000000
        }
      }
    }
  }
  JOINT RightUpLeg
  {
    OFFSET -10.000000 -5.000000 0.000000
    CHANNELS 3 Zrotation Xrotation Yrotation
    JOINT RightLeg
    {
      OFFSET 0.000000 -42.000000 0.000000
      CHANNELS 3 Zrotation Xrotation Yrotation
      JOINT RightFoot
      {
        OFFSET 0.000000 -42.000000 4.000000
        CHANNELS 3 Zrotation Xrotation Yrotation
        End Site
        {
          OFFSET 0.000000 0.000000 12.000000
        }
      }
    }
  }
}
MOTION
Frames: 4
Frame Time: 0.033333
0.0000 95.0000 0.0000 0.0000 0.0000 0.0000 0.0000 0.0000 0.0000 0.0000 0.0000 0.0000 0.0000 0.0000 0.0000 0.0000 0.0000 0.0000 0.0000 0.0000 0.0000 0.0000 0.0000 0.0000 -70.7457 -11.2708 -15.8255 -119.8062 65.7319 -230.3696 -1.3054 51.0803 395.2604 59.3950 -22.5909 -81.0542 43.5310 0.0000 0.0000 15.2936 0.0000 0.0000 -9.0596 10.3502 -83.7453 61.1650 0.0000 0.0000 30.4288 0.0000 0.0000 -6.5384 -9.9748 -118.3583 38.8305 0.0000 0.0000 90.0000 0.0000 0.0000 4.0876 -18.6618 -119.0970 110.0000 0.0000 0.0000 40.7012 0.0000 0.0000 12.3196 -31.4266 -115.5121 72.4553 0.0000 0.0000 77.3192 0.0000 0.0000 0.0000 0.0000 0.0000 78.0685 -19.0515 23.3866 194.1835 70.3727 284.7149 30.6538 66.3729 -327.5061 -52.7623 -21.2439 55.9944 22.3613 0.0000 0.0000 9.7076 0.0000 0.0000 15.7969 1.4992 18.9926 20.4995 0.0000 0.0000 45.9940 0.0000 0.0000 -3.4043 2.8700 85.0326 28.8229 0.0000 0.0000 90.0000 0.0000 0.0000 -11.9835 -4.4330 89.4155 110.0000 0.0000 0.0000 40.5559 0.0000 0.0000 -20.0313 -14.4653 89.4772 110.0000 0.0000 0.0000 30.0840 0.0000 0.0000 0.0000 0.0000 0.0000 0.0000 0.0000 0.0000 0.0000 0.0000 0.0000 0.0000 0.0000 0.0000 0.0000 0.0000 0.0000 0.0000 0.0000 0.0000
0.0000 95.0000 0.0000 0.0000 0.0000 0.0000 0.0000 0.0000 0.0000 0.0000 0.0000 0.0000 0.0000 0.0000 0.0000 0.0000 0.0000 0.0000 0.0000 0.0000 0.0000 0.0000 0.0000 0.0000 -70.1310 -11.6583 -16.5508 -108.7607 68.5432 -214.5861 17.1150 58.9781 414.6668 67.0268 -18.5338 -84.0132 47.2214 0.0000 0.0000 16.5225 0.0000 0.0000 -2.5316 16.5299 -86.8161 57.7768 0.0000 0.0000 34.8778 0.0000 0.0000 -4.9686 -8.2280 -122.5749 21.0490 0.0000 0.0000 90.0000 0.0000 0.0000 5.9192 -17.2680 -123.5160 49.6079 0.0000 0.0000 90.0000 0.0000 0.0000 14.7074 -31.2654 -121.5801 34.4439 0.0000 0.0000 84.6383 0.0000 0.0000 0.0000 0.0000 0.0000 78.2084 -18.7876 23.0097 194.4565 72.9740 283.7266 43.3293 71.3993 -318.1001 -62.7551 -17.9837 54.5349 25.2134 0.0000 0.0000 13.6985 0.0000 0.0000 9.0650 2.5628 21.2950 40.1520 0.0000 0.0000 31.9322 0.0000 0.0000 -13.3980 10.1073 78.7240 32.1353 0.0000 0.0000 90.0000 0.0000 0.0000 -21.2818 3.4006 84.2879 110.0000 0.0000 0.0000 23.8329 0.0000 0.0000 -30.9182 -4.9748 85.8792 110.0000 0.0000 0.0000 29.3649 0.0000 0.0000 0.0000 0.0000 0.0000 0.0000 0.0000 0.0000 0.0000 0.0000 0.0000 0.0000 0.0000 0.0000 0.0000 0.0000 0.0000 0.0000 0.0000 0.0000
0.0000 95.0000 0.0000 0.0000 0.0000 0.0000 0.0000 0.0000 0.0000 0.0000 0.0000 0.0000 0.0000 0.0000 0.0000 0.0000 0.0000 0.0000 0.0000 0.0000 0.0000 0.0000 0.0000 0.0000 -69.3695 -12.1308 -17.4585 -97.9532 70.2393 -199.9103 8.8661 65.8569 405.7734 71.1740 -15.7854 -71.3935 48.4622 0.0000 0.0000 16.7170 0.0000 0.0000 -5.2243 11.3163 -73.2112 68.3620 0.0000 0.0000 30.8979 0.0000 0.0000 -3.7047 -4.9858 -111.5596 21.4786 0.0000 0.0000 90.0000 0.0000 0.0000 8.2129 -11.4772 -113.9215 71.7066 0.0000 0.0000 69.1421 0.0000 0.0000 18.2452 -22.2216 -111.4619 49.1144 0.0000 0.0000 82.5069 0.0000 0.0000 0.0000 0.0000 0.0000 78.2551 -18.5986 22.7618 193.0639 75.6050 281.1209 80.5138 71.9677 -282.7900 -62.8637 -16.8905 42.9200 20.6862 0.0000 0.0000 11.1048 0.0000 0.0000 14.6209 1.4391 15.1032 30.3083 0.0000 0.0000 41.9077 0.0000 0.0000 -18.9102 12.0995 69.7161 8.9809 0.0000 0.0000 90.0000 0.0000 0.0000 -27.1767 7.0039 76.5724 110.0000 0.0000 0.0000 47.1357 0.0000 0.0000 -37.5926 0.1007 79.5873 92.0787 0.0000 0.0000 80.4520 0.0000 0.0000 0.0000 0.0000 0.0000 0.0000 0.0000 0.0000 0.0000 0.0000 0.0000 0.0000 0.0000 0.0000 0.0000 0.0000 0.0000 0.0000 0.0000 0.0000
0.0000 95.0000 0.0000 0.0000 0.0000 0.0000 0.0000 0.0000 0.0000 0.0000 0.0000 0.0000 0.0000 0.0000 0.0000 0.0000 0.0000 0.0000 0.0000 0.0000 0.0000 0.0000 0.0000 0.0000 -69.0444 -12.2518 -17.7368 -89.5326 70.3175 -189.1991 42.8921 68.5777 439.0518 76.5986 -13.0865 -75.9731 43.0914 0.0000 0.0000 9.2066 0.0000 0.0000 -15.1245 3.2494 -51.4454 37.2672 0.0000 0.0000 21.5147 0.0000 0.0000 -1.3996 -1.9658 -113.8746 14.4016 0.0000 0.0000 21.9131 0.0000 0.0000 10.1423 -9.6847 -119.2621 35.2796 0.0000 0.0000 73.3244 0.0000 0.0000 20.5645 -21.7199 -118.8058 29.9256 0.0000 0.0000 66.4807 0.0000 0.0000 0.0000 0.0000 0.0000 77.9907 -18.6158 22.8875 196.9861 78.5573 283.0698 21.0390 76.2443 -352.6301 -67.7540 -16.2505 49.5920 29.3040 0.0000 0.0000 14.1347 0.0000 0.0000 14.5823 2.1042 27.4966 27.6132 0.0000 0.0000 38.8706 0.0000 0.0000 -3.4980 3.0277 86.5244 5.1210 0.0000 0.0000 5.3891 0.0000 0.0000 -13.3510 -3.2892 91.0321 42.9235 0.0000 0.0000 90.0000 0.0000 0.0000 -21.9507 -13.4459 92.8303 42.6382 0.0000 0.0000 90.0000 0.0000 0.0000 0.0000 0.0000 0.0000 0.0000 0.0000 0.0000 0.0000 0.0000 0.0000 0.0000 0.0000 0.0000 0.0000 0.0000 0.0000 0.0000 0.0000 0.0000
